<svg xmlns="http://www.w3.org/2000/svg" xmlns:xlink="http://www.w3.org/1999/xlink" width="1344" zoomAndPan="magnify" viewBox="0 0 1008 1295.99994" height="1728" preserveAspectRatio="xMidYMid meet" version="1.0"><defs><g/><clipPath id="299339adb7"><path d="M 265.492188 8.988281 L 493.667969 8.988281 L 493.667969 1136.417969 L 265.492188 1136.417969 Z M 265.492188 8.988281 " clip-rule="nonzero"/></clipPath><clipPath id="9b51e70cad"><path d="M 513.960938 8.988281 L 742.136719 8.988281 L 742.136719 1136.417969 L 513.960938 1136.417969 Z M 513.960938 8.988281 " clip-rule="nonzero"/></clipPath><clipPath id="37a519510f"><path d="M 17.398438 8.988281 L 245.570312 8.988281 L 245.570312 1136.417969 L 17.398438 1136.417969 Z M 17.398438 8.988281 " clip-rule="nonzero"/></clipPath><clipPath id="f661357f94"><path d="M 762.429688 8.988281 L 990.601562 8.988281 L 990.601562 1136.417969 L 762.429688 1136.417969 Z M 762.429688 8.988281 " clip-rule="nonzero"/></clipPath></defs><g clip-path="url(#299339adb7)"><path fill="#ea952f" d="M 265.492188 8.988281 L 493.667969 8.988281 L 493.667969 1136.484375 L 265.492188 1136.484375 Z M 265.492188 8.988281 " fill-opacity="1" fill-rule="nonzero"/></g><g clip-path="url(#9b51e70cad)"><path fill="#6d9994" d="M 513.960938 8.988281 L 742.136719 8.988281 L 742.136719 1136.484375 L 513.960938 1136.484375 Z M 513.960938 8.988281 " fill-opacity="1" fill-rule="nonzero"/></g><g clip-path="url(#37a519510f)"><path fill="#cc4d5f" d="M 17.398438 8.988281 L 245.570312 8.988281 L 245.570312 1136.484375 L 17.398438 1136.484375 Z M 17.398438 8.988281 " fill-opacity="1" fill-rule="nonzero"/></g><g clip-path="url(#f661357f94)"><path fill="#cc4d5f" d="M 762.429688 8.988281 L 990.601562 8.988281 L 990.601562 1136.484375 L 762.429688 1136.484375 Z M 762.429688 8.988281 " fill-opacity="1" fill-rule="nonzero"/></g><path fill="#1e1e1e" d="M 88.652344 724.25 C 89.703125 773.636719 102.941406 961.984375 176.511719 966.25 C 183.824219 972.871094 193.210938 977.496094 203.101562 979.796875 C 210.523438 982.371094 219.109375 982.457031 227.53125 980.40625 C 235.175781 978.964844 242.238281 975.835938 248 970.878906 C 252.875 967.109375 256.78125 962.539062 259.355469 957.332031 C 262.820312 960.242188 266.667969 962.652344 270.933594 964.507812 C 292.816406 973.785156 317.164062 948.800781 323.117188 929.773438 C 334.363281 893.957031 316.5 859.53125 305.863281 825.765625 C 296.582031 796.40625 293.980469 764.800781 286.945312 734.886719 C 280.074219 705.941406 254.230469 640.65625 217.945312 642.316406 C 203.046875 599.964844 202.046875 556.371094 205.316406 511.746094 C 205.648438 507.703125 203.710938 505.128906 201.050781 503.824219 C 200.136719 503.078125 199.085938 502.46875 197.726562 502.023438 C 193.324219 500.613281 188.753906 499.808594 184.183594 499.421875 C 186.398438 482.996094 187.339844 466.347656 193.65625 450.839844 C 194.929688 447.625 194.320312 444.964844 192.769531 443.054688 C 208.917969 386.023438 235.617188 334.976562 281.070312 295.449219 C 329.296875 253.597656 395.273438 230.523438 456.902344 217.78125 C 627.496094 182.550781 782.886719 296.003906 833.769531 455.960938 C 834.515625 458.371094 835.929688 459.980469 837.589844 461.03125 C 840.996094 473.523438 841.996094 486.515625 843.792969 499.421875 C 839.140625 499.808594 834.625 500.613281 830.195312 502.023438 C 828.894531 502.46875 827.757812 503.078125 826.898438 503.824219 C 824.238281 505.128906 822.328125 507.703125 822.632812 511.746094 C 825.902344 556.867188 824.875 600.964844 809.476562 643.730469 C 799.503906 644.117188 789.3125 648.078125 781.832031 654.3125 C 759.757812 672.621094 750.285156 700.871094 742.863281 727.574219 C 734.578125 757.433594 731.421875 788.425781 724.027344 818.398438 C 715.300781 853.546875 696.9375 885.011719 702.449219 922.15625 C 706.023438 946.390625 730.453125 968.964844 754.742188 965.449219 C 757.042969 965.117188 759.203125 964.394531 761.308594 963.539062 C 772.109375 977.191406 788.925781 991.042969 807.066406 981.570312 C 812.441406 978.800781 817.011719 974.894531 821.027344 970.433594 C 821.082031 970.433594 821.136719 970.433594 821.136719 970.515625 C 831.71875 974.894531 844.460938 973.980469 853.792969 967.222656 C 854.429688 966.804688 854.984375 966.308594 855.457031 965.808594 C 925.53125 955.117188 938.246094 772.777344 939.300781 724.25 C 939.300781 724.113281 939.300781 724 939.242188 723.863281 C 939.492188 722.503906 939.492188 721.09375 938.996094 719.484375 C 935.53125 708.40625 928.855469 692.703125 917.304688 686.828125 C 940.851562 605.949219 922.789062 518.894531 900.605469 439.703125 C 900.355469 438.957031 900.105469 438.289062 899.800781 437.652344 C 898.859375 433.996094 896.035156 430.867188 891.132812 430.867188 C 888.859375 430.867188 886.644531 430.921875 884.402344 431.171875 C 867.78125 381.257812 839.445312 337.050781 812.550781 292.179688 C 792.332031 258.417969 762.167969 231.824219 729.09375 211.109375 C 655.886719 165.347656 562.570312 154.296875 478.175781 161.167969 C 400.203125 167.453125 319.601562 189.171875 255.285156 234.929688 C 189.859375 281.40625 153.769531 353.753906 138.3125 430.921875 C 137.816406 430.867188 137.316406 430.867188 136.816406 430.867188 C 131.859375 430.867188 129.035156 433.996094 128.175781 437.652344 C 127.84375 438.289062 127.539062 438.957031 127.371094 439.703125 C 105.046875 519.335938 86.851562 606.945312 111.03125 688.1875 C 99.839844 694.058594 93.304688 705.5 88.957031 719.484375 C 88.457031 721.09375 88.402344 722.503906 88.652344 723.863281 C 88.652344 724 88.59375 724.113281 88.652344 724.25 " fill-opacity="1" fill-rule="nonzero"/><path fill="#1e1e1e" d="M 809.226562 624.066406 C 808.589844 595.257812 807.234375 566.5625 802.664062 538.144531 C 800.804688 526.316406 782.941406 531.328125 784.796875 543.074219 C 789.0625 569.859375 790.113281 596.949219 790.667969 624.066406 C 790.917969 636.003906 809.476562 636.003906 809.226562 624.066406 " fill-opacity="1" fill-rule="nonzero"/><path fill="#1e1e1e" d="M 783.441406 618.886719 C 783.496094 601.824219 784.050781 584.816406 780.53125 568.003906 C 778.066406 556.3125 760.171875 561.246094 762.664062 572.933594 C 765.824219 588.027344 764.9375 603.539062 764.882812 618.886719 C 764.828125 630.878906 783.382812 630.878906 783.441406 618.886719 " fill-opacity="1" fill-rule="nonzero"/><path fill="#1e1e1e" d="M 757.152344 643.621094 C 757.152344 613.566406 757.042969 583.761719 751.667969 554.070312 C 749.5625 542.355469 731.699219 547.339844 733.777344 559.027344 C 738.84375 587.03125 738.597656 615.285156 738.597656 643.621094 C 738.597656 655.613281 757.152344 655.613281 757.152344 643.621094 " fill-opacity="1" fill-rule="nonzero"/><path fill="#1e1e1e" d="M 715.414062 517.921875 C 711.394531 569.914062 714.609375 621.960938 714.941406 674.03125 C 714.996094 685.96875 733.554688 686.027344 733.472656 674.03125 C 733.167969 621.960938 729.953125 569.914062 733.96875 517.921875 C 734.882812 505.984375 716.355469 506.042969 715.414062 517.921875 " fill-opacity="1" fill-rule="nonzero"/><path fill="#1e1e1e" d="M 707.683594 510.195312 C 707.683594 498.257812 689.152344 498.257812 689.152344 510.195312 C 689.210938 568.058594 689.652344 625.921875 689.652344 683.808594 C 689.652344 695.804688 708.183594 695.804688 708.183594 683.808594 C 708.183594 625.921875 707.765625 568.058594 707.683594 510.195312 " fill-opacity="1" fill-rule="nonzero"/><path fill="#1e1e1e" d="M 686.550781 620.4375 C 686.660156 598.527344 687.601562 576.839844 684.195312 555.121094 C 682.339844 543.324219 664.472656 548.335938 666.273438 560.082031 C 669.433594 580.050781 668.128906 600.328125 667.992188 620.4375 C 667.9375 632.429688 686.496094 632.429688 686.550781 620.4375 " fill-opacity="1" fill-rule="nonzero"/><path fill="#1e1e1e" d="M 657.742188 641.070312 C 657.992188 611.210938 660.707031 581.601562 655.335938 552.046875 C 653.171875 540.304688 635.28125 545.234375 637.441406 557.007812 C 642.539062 584.761719 639.378906 613.066406 639.1875 641.070312 C 639.074219 653.007812 657.605469 653.007812 657.742188 641.070312 " fill-opacity="1" fill-rule="nonzero"/><path fill="#1e1e1e" d="M 630.902344 669.40625 C 631.265625 615.867188 635.113281 562.492188 627.496094 509.253906 C 625.835938 497.453125 607.96875 502.523438 609.632812 514.210938 C 617 565.703125 612.734375 617.636719 612.347656 669.40625 C 612.289062 681.398438 630.847656 681.316406 630.902344 669.40625 " fill-opacity="1" fill-rule="nonzero"/><path fill="#1e1e1e" d="M 584.535156 525.152344 C 584.148438 571.023438 585.144531 616.917969 588.191406 662.730469 C 588.914062 674.585938 607.472656 674.640625 606.722656 662.730469 C 603.703125 616.917969 602.707031 571.023438 603.066406 525.152344 C 603.207031 513.160156 584.648438 513.160156 584.535156 525.152344 " fill-opacity="1" fill-rule="nonzero"/><path fill="#1e1e1e" d="M 558.25 711.121094 C 559.246094 722.949219 577.777344 723.058594 576.808594 711.121094 C 570.796875 638.246094 576.726562 565.09375 572.710938 492.136719 C 572.042969 480.253906 553.488281 480.199219 554.179688 492.136719 C 558.195312 565.09375 552.269531 638.246094 558.25 711.121094 " fill-opacity="1" fill-rule="nonzero"/><path fill="#1e1e1e" d="M 527.894531 650.847656 C 529.304688 662.539062 547.863281 662.730469 546.453125 650.847656 C 540.882812 605.839844 544.898438 560.523438 542.796875 515.320312 C 542.242188 503.4375 523.683594 503.382812 524.238281 515.320312 C 526.34375 560.523438 522.324219 605.839844 527.894531 650.847656 " fill-opacity="1" fill-rule="nonzero"/><path fill="#1e1e1e" d="M 510.886719 647.25 C 511.082031 615.921875 513.488281 584.621094 509.335938 553.460938 C 507.730469 541.773438 489.199219 541.660156 490.804688 553.460938 C 494.933594 584.621094 492.523438 615.921875 492.355469 647.25 C 492.21875 659.1875 510.777344 659.1875 510.886719 647.25 " fill-opacity="1" fill-rule="nonzero"/><path fill="#1e1e1e" d="M 465.019531 548.335938 C 464.769531 588.027344 461.417969 627.71875 466.070312 667.355469 C 467.425781 679.046875 485.957031 679.238281 484.601562 667.355469 C 479.976562 627.71875 483.296875 588.027344 483.574219 548.335938 C 483.632812 536.34375 465.074219 536.34375 465.019531 548.335938 " fill-opacity="1" fill-rule="nonzero"/><path fill="#1e1e1e" d="M 441.335938 525.652344 C 441.28125 582.15625 440.394531 638.660156 440.78125 695.167969 C 440.890625 707.105469 459.449219 707.105469 459.3125 695.167969 C 458.953125 638.660156 459.808594 582.15625 459.867188 525.652344 C 459.867188 513.714844 441.335938 513.714844 441.335938 525.652344 " fill-opacity="1" fill-rule="nonzero"/><path fill="#1e1e1e" d="M 408.871094 487.484375 C 408.320312 571.328125 407.515625 655.167969 410.921875 738.957031 C 411.394531 750.894531 429.953125 750.953125 429.453125 738.957031 C 426.046875 655.167969 426.875 571.328125 427.429688 487.484375 C 427.484375 475.574219 408.929688 475.574219 408.871094 487.484375 " fill-opacity="1" fill-rule="nonzero"/><path fill="#1e1e1e" d="M 382.585938 500.917969 C 378.210938 561.328125 379.015625 621.792969 380.480469 682.257812 C 380.785156 694.195312 399.34375 694.253906 399.039062 682.257812 C 397.542969 621.792969 396.742188 561.328125 401.144531 500.917969 C 402.003906 488.980469 383.390625 489.035156 382.585938 500.917969 " fill-opacity="1" fill-rule="nonzero"/><path fill="#1e1e1e" d="M 373.804688 627.167969 C 373.863281 603.789062 374.25 580.4375 373.308594 557.0625 C 372.808594 545.179688 354.277344 545.125 354.777344 557.0625 C 355.691406 580.4375 355.332031 603.789062 355.25 627.167969 C 355.25 639.105469 373.804688 639.105469 373.804688 627.167969 " fill-opacity="1" fill-rule="nonzero"/><path fill="#1e1e1e" d="M 327.4375 522.550781 L 327.4375 670.957031 C 327.4375 683.3125 345.996094 683.3125 345.996094 670.957031 L 345.996094 522.550781 C 345.996094 510.613281 327.4375 510.613281 327.4375 522.550781 " fill-opacity="1" fill-rule="nonzero"/><path fill="#1e1e1e" d="M 320.765625 630.269531 C 320.875 605.726562 322.175781 581.492188 318.355469 557.171875 C 316.5 545.371094 298.632812 550.441406 300.488281 562.128906 C 304.0625 584.621094 302.34375 607.5 302.207031 630.269531 C 302.152344 642.207031 320.707031 642.207031 320.765625 630.269531 " fill-opacity="1" fill-rule="nonzero"/><path fill="#1e1e1e" d="M 277.96875 528.726562 C 277.96875 528.726562 277.96875 615.285156 277.96875 658.578125 C 277.96875 670.957031 296.527344 670.957031 296.527344 658.578125 L 296.527344 528.726562 C 296.527344 516.371094 277.96875 516.371094 277.96875 528.726562 " fill-opacity="1" fill-rule="nonzero"/><path fill="#1e1e1e" d="M 269.1875 638.496094 C 269.382812 608.800781 271.046875 579.441406 266.863281 549.941406 C 265.117188 538.199219 247.253906 543.210938 248.914062 554.902344 C 252.929688 582.601562 250.824219 610.601562 250.660156 638.496094 C 250.574219 650.488281 269.132812 650.40625 269.1875 638.496094 " fill-opacity="1" fill-rule="nonzero"/><path fill="#1e1e1e" d="M 226.976562 578.195312 C 226.976562 578.195312 226.894531 596.503906 226.476562 606.28125 C 225.839844 618.277344 244.398438 618.828125 245.035156 606.945312 C 245.453125 597.113281 245.507812 584.371094 245.507812 578.195312 C 245.507812 565.84375 226.976562 565.84375 226.976562 578.195312 " fill-opacity="1" fill-rule="nonzero"/><path fill="#1e1e1e" d="M 156.984375 935.339844 C 155.375 927.472656 151.054688 916.726562 150.472656 914.484375 C 147.757812 902.792969 145.238281 891.050781 142.746094 879.25 C 138.175781 857.285156 132.191406 835.652344 127.539062 813.773438 C 124.464844 799.007812 120.808594 753 107.570312 734.5 C 109.867188 779.203125 121.667969 897.476562 156.984375 935.339844 Z M 164.960938 503.078125 C 167.785156 487.316406 168.367188 471.113281 172.550781 455.714844 C 162.964844 453.550781 153.519531 450.78125 143.796875 449.785156 C 123.523438 523.046875 107.125 602.679688 127.234375 677.441406 C 140.640625 670.15625 154.738281 664.644531 169.722656 661.679688 C 147.398438 614.621094 153.328125 558.363281 163.160156 508.507812 C 163.351562 507.59375 163.65625 506.789062 163.960938 506.097656 C 164.210938 505.347656 164.515625 504.683594 164.90625 503.992188 C 164.90625 503.6875 164.90625 503.382812 164.960938 503.078125 Z M 184.292969 947.027344 C 185.042969 945.589844 185.734375 944.039062 186.398438 942.570312 C 171.136719 899.386719 164.90625 852.050781 153.382812 807.648438 C 147.398438 784.578125 141.527344 761.53125 136.070312 738.347656 C 134.960938 733.390625 134.851562 727.960938 134.464844 722.949219 C 133.105469 702.921875 114.382812 707.242188 107.875 721.644531 C 125.128906 734.554688 128.839844 773.277344 132.109375 789.894531 C 142.496094 841.527344 159.390625 892.601562 168.421875 944.285156 C 173.351562 946.695312 178.613281 947.75 184.292969 947.027344 Z M 191.855469 654.808594 C 194.761719 652.152344 197.589844 649.992188 200.441406 648.246094 C 185.289062 606.199219 183.488281 562.738281 186.34375 518.421875 C 184.292969 518.035156 182.269531 517.839844 180.222656 517.785156 C 171.441406 563.738281 166.371094 615.726562 188.640625 658.214844 C 189.695312 657.027344 190.664062 655.863281 191.855469 654.808594 Z M 245.507812 941.269531 C 245.507812 941.210938 245.589844 941.074219 245.589844 941.019531 C 237.417969 927.613281 232.460938 911.410156 228.832031 897.558594 C 216.203125 845.734375 200.332031 794.796875 186.703125 743.222656 C 182.132812 725.71875 175.261719 699.820312 179.363281 678.601562 C 179.308594 678.601562 179.167969 678.660156 179.058594 678.660156 C 166.011719 680.292969 153.769531 684.722656 142.082031 690.539062 C 147.953125 696.71875 151.164062 706.136719 152.273438 713.863281 C 157.59375 751.867188 167.785156 788.484375 177.257812 825.820312 C 186.703125 863.492188 191.800781 903.292969 205.011719 939.773438 C 205.871094 942.320312 205.703125 944.480469 204.761719 946.28125 C 204.597656 947.027344 204.402344 947.75 204.097656 948.441406 C 203.460938 949.742188 202.851562 951.046875 202.242188 952.347656 C 202.40625 952.761719 202.546875 953.207031 202.65625 953.703125 C 203.542969 957.886719 205.757812 960.628906 208.722656 962.152344 C 213.847656 963.289062 219.109375 963.453125 223.929688 962.539062 C 229.441406 960.878906 234.816406 957.71875 238.722656 953.816406 C 240.273438 951.65625 241.433594 949.191406 242.238281 946.199219 C 242.847656 943.925781 244.039062 942.320312 245.507812 941.269531 Z M 246.753906 892.601562 C 251.019531 908.914062 265.5625 947.582031 282.984375 947.5 C 245.894531 857.976562 216.089844 767.15625 204.957031 670.570312 C 200.441406 674.476562 197.476562 680.597656 197.285156 689.183594 C 197.035156 702.976562 198.835938 716.328125 202.296875 729.625 C 216.699219 784.023438 233.402344 837.898438 246.753906 892.601562 Z M 302.398438 929.828125 C 316.5 902.792969 302.289062 872.769531 293.175781 846.429688 C 281.238281 811.722656 278.109375 775.242188 269.078125 739.816406 C 263.566406 718.292969 257.5 691.539062 241.378906 675.140625 C 233.652344 667.246094 222.765625 664.089844 213.738281 666.195312 C 224.375 763.304688 254.371094 854.40625 291.570312 944.175781 C 295.171875 941.460938 298.742188 936.808594 302.398438 929.828125 Z M 814.546875 663.035156 C 801.109375 658.632812 786.515625 673.230469 780.640625 682.953125 C 770.089844 700.484375 763.578125 719.902344 758.898438 739.816406 C 749.730469 778.402344 744.964844 817.179688 731.808594 854.710938 C 723.140625 879.445312 706.328125 926.117188 736.574219 943.734375 C 774.050781 853.101562 804.269531 761.144531 814.546875 663.035156 Z M 827.644531 720.84375 C 830.417969 706.441406 834.929688 685.222656 825.542969 671.871094 C 824.792969 670.765625 823.992188 669.765625 823.132812 668.910156 C 812.191406 766.046875 782.332031 857.285156 745.050781 947.25 C 766.128906 950.242188 777.429688 906.949219 781.195312 892.601562 C 795.183594 835.238281 816.511719 778.761719 827.644531 720.84375 Z M 838.890625 658.882812 C 861.578125 616.28125 856.589844 563.988281 847.726562 517.785156 C 845.707031 517.839844 843.65625 518.035156 841.605469 518.421875 C 844.402344 562.546875 842.605469 605.894531 827.703125 647.746094 C 831.414062 649.851562 834.820312 652.761719 837.535156 656.664062 C 838.035156 657.414062 838.394531 658.132812 838.890625 658.882812 Z M 847.367188 438.457031 C 853.601562 437.292969 859.75 435.6875 865.925781 434.328125 C 849.972656 387.269531 823.4375 343.0625 796.542969 301.570312 C 773.910156 266.585938 742.75 238.253906 705.664062 219.140625 C 636.414062 183.546875 555.34375 172.164062 478.175781 179.699219 C 404.246094 186.871094 325.085938 205.59375 264.617188 250.9375 C 204.511719 295.949219 171.746094 360.816406 156.734375 433.140625 C 162.855469 434.441406 168.976562 435.992188 175.097656 437.347656 C 193.460938 372.921875 225.230469 315.421875 278.96875 273.511719 C 332.5625 231.714844 406.074219 204.765625 473.105469 196.539062 C 643.644531 175.515625 791.363281 280.355469 847.367188 438.457031 Z M 875.675781 713.863281 C 877.03125 703.835938 880.6875 695.996094 886.644531 690.929688 C 874.761719 684.917969 862.214844 680.347656 848.917969 678.660156 C 848.613281 678.601562 848.28125 678.546875 847.976562 678.492188 C 847.8125 678.601562 847.5625 678.742188 847.3125 678.851562 C 852.6875 702.480469 845.621094 728.460938 838.835938 751.699219 C 824.683594 799.976562 811.027344 848.644531 799.089844 897.558594 C 795.433594 911.65625 788.257812 936.558594 775.710938 952.015625 C 782.941406 961.101562 793.132812 971.875 803.769531 961.488281 C 812.136719 953.425781 817.925781 943.371094 824.128906 933.652344 C 824.542969 932.984375 825.042969 932.433594 825.542969 931.933594 C 838.089844 893.957031 843.65625 852.964844 853.683594 814.269531 C 862.324219 780.808594 870.9375 747.988281 875.675781 713.863281 Z M 900.660156 677.441406 C 920.824219 602.679688 904.425781 523.046875 884.097656 449.785156 C 874.375 450.78125 864.929688 453.550781 855.398438 455.714844 C 859.609375 471.113281 860.164062 487.316406 862.960938 503.078125 C 863.015625 503.382812 863.015625 503.6875 863.074219 503.992188 C 863.433594 504.683594 863.738281 505.347656 863.929688 506.097656 C 864.320312 506.789062 864.625 507.59375 864.816406 508.507812 C 874.625 558.363281 880.578125 614.621094 858.253906 661.679688 C 873.210938 664.644531 887.253906 670.15625 900.660156 677.441406 Z M 920.019531 721.644531 C 913.59375 707.242188 894.789062 702.921875 893.429688 722.949219 C 893.125 727.960938 892.988281 733.390625 891.824219 738.347656 C 886.449219 761.53125 880.496094 784.578125 874.511719 807.648438 C 863.074219 852.050781 856.757812 899.386719 841.496094 942.570312 C 842.242188 944.039062 842.851562 945.589844 843.601562 947.027344 C 849.277344 947.75 854.597656 946.695312 859.554688 944.285156 C 868.53125 892.601562 885.203125 841.414062 895.785156 789.894531 C 899.191406 773.277344 902.765625 734.554688 920.019531 721.644531 Z M 870.136719 936.308594 C 906.117188 899.386719 918.109375 779.453125 920.382812 734.386719 C 907.03125 752.863281 903.816406 798.925781 900.355469 813.773438 C 895.339844 835.597656 889.773438 857.285156 885.148438 879.25 C 881.933594 894.707031 879.636719 911.269531 874.457031 926.171875 C 873.957031 927.667969 871.492188 932.183594 870.136719 936.308594 Z M 938.996094 719.484375 C 939.492188 721.09375 939.492188 722.503906 939.242188 723.863281 C 939.300781 724 939.300781 724.113281 939.300781 724.25 C 938.246094 772.777344 925.53125 955.117188 855.457031 965.808594 C 854.984375 966.308594 854.429688 966.804688 853.792969 967.222656 C 844.460938 973.980469 831.71875 974.894531 821.136719 970.515625 C 821.136719 970.433594 821.082031 970.433594 821.027344 970.433594 C 817.011719 974.894531 812.441406 978.800781 807.066406 981.570312 C 788.925781 991.042969 772.109375 977.191406 761.308594 963.539062 C 759.203125 964.394531 757.042969 965.117188 754.742188 965.449219 C 730.453125 968.964844 706.023438 946.390625 702.449219 922.15625 C 696.9375 885.011719 715.300781 853.546875 724.027344 818.398438 C 731.421875 788.425781 734.578125 757.433594 742.863281 727.574219 C 750.285156 700.871094 759.757812 672.621094 781.832031 654.3125 C 789.3125 648.078125 799.503906 644.117188 809.476562 643.730469 C 824.875 600.964844 825.902344 556.867188 822.632812 511.746094 C 822.328125 507.703125 824.238281 505.128906 826.898438 503.824219 C 827.757812 503.078125 828.894531 502.46875 830.195312 502.023438 C 834.625 500.613281 839.140625 499.808594 843.792969 499.421875 C 841.996094 486.515625 840.996094 473.523438 837.589844 461.03125 C 835.929688 459.980469 834.515625 458.371094 833.769531 455.960938 C 782.886719 296.003906 627.496094 182.550781 456.902344 217.78125 C 395.273438 230.523438 329.296875 253.597656 281.070312 295.449219 C 235.617188 334.976562 208.917969 386.023438 192.769531 443.054688 C 194.320312 444.964844 194.929688 447.625 193.65625 450.839844 C 187.339844 466.347656 186.398438 482.996094 184.183594 499.421875 C 188.753906 499.808594 193.324219 500.613281 197.726562 502.023438 C 199.085938 502.46875 200.136719 503.078125 201.050781 503.824219 C 203.710938 505.128906 205.648438 507.703125 205.316406 511.746094 C 202.046875 556.371094 203.046875 599.964844 217.945312 642.316406 C 254.230469 640.65625 280.074219 705.941406 286.945312 734.886719 C 293.980469 764.800781 296.582031 796.40625 305.863281 825.765625 C 316.5 859.53125 334.363281 893.957031 323.117188 929.773438 C 317.164062 948.800781 292.816406 973.785156 270.933594 964.507812 C 266.667969 962.652344 262.820312 960.242188 259.355469 957.332031 C 256.78125 962.539062 252.875 967.109375 248 970.878906 C 242.238281 975.835938 235.175781 978.992188 227.53125 980.40625 C 219.109375 982.457031 210.523438 982.371094 203.101562 979.796875 C 193.210938 977.496094 183.824219 972.871094 176.511719 966.25 C 102.941406 961.984375 89.703125 773.636719 88.652344 724.25 C 88.59375 724.113281 88.652344 724 88.652344 723.863281 C 88.402344 722.503906 88.457031 721.09375 88.957031 719.484375 C 93.304688 705.5 99.839844 694.058594 111.03125 688.1875 C 86.851562 606.945312 105.046875 519.335938 127.371094 439.703125 C 127.539062 438.957031 127.84375 438.289062 128.175781 437.652344 C 129.035156 433.996094 131.859375 430.867188 136.816406 430.867188 C 137.316406 430.867188 137.816406 430.867188 138.3125 430.921875 C 153.769531 353.753906 189.859375 281.40625 255.285156 234.929688 C 319.601562 189.171875 400.203125 167.453125 478.175781 161.167969 C 562.570312 154.296875 655.886719 165.347656 729.09375 211.109375 C 762.167969 231.824219 792.332031 258.417969 812.550781 292.179688 C 839.445312 337.050781 867.78125 381.257812 884.402344 431.171875 C 886.644531 430.921875 888.859375 430.867188 891.132812 430.867188 C 896.035156 430.867188 898.859375 433.996094 899.800781 437.652344 C 900.105469 438.289062 900.355469 438.957031 900.605469 439.703125 C 922.789062 518.894531 940.851562 605.949219 917.304688 686.828125 C 928.855469 692.703125 935.53125 708.40625 938.996094 719.484375 " fill-opacity="1" fill-rule="nonzero"/><path fill="#1e1e1e" d="M 920.382812 734.386719 C 918.109375 779.453125 906.117188 899.386719 870.136719 936.308594 C 871.492188 932.183594 873.957031 927.667969 874.457031 926.171875 C 879.636719 911.269531 881.933594 894.707031 885.148438 879.25 C 889.773438 857.285156 895.339844 835.597656 900.355469 813.773438 C 903.816406 798.925781 907.03125 752.863281 920.382812 734.386719 " fill-opacity="1" fill-rule="nonzero"/><path fill="#1e1e1e" d="M 893.429688 722.949219 C 894.789062 702.921875 913.59375 707.242188 920.019531 721.644531 C 902.765625 734.554688 899.191406 773.277344 895.785156 789.894531 C 885.203125 841.414062 868.53125 892.601562 859.554688 944.285156 C 854.597656 946.695312 849.277344 947.75 843.601562 947.027344 C 842.851562 945.589844 842.242188 944.039062 841.496094 942.570312 C 856.757812 899.386719 863.074219 852.050781 874.511719 807.648438 C 880.496094 784.578125 886.449219 761.53125 891.824219 738.347656 C 892.988281 733.390625 893.125 727.960938 893.429688 722.949219 " fill-opacity="1" fill-rule="nonzero"/><path fill="#1e1e1e" d="M 884.097656 449.785156 C 904.425781 523.046875 920.824219 602.679688 900.660156 677.441406 C 887.253906 670.15625 873.210938 664.644531 858.253906 661.679688 C 880.578125 614.621094 874.625 558.363281 864.816406 508.507812 C 864.625 507.59375 864.320312 506.789062 863.929688 506.097656 C 863.738281 505.347656 863.433594 504.683594 863.074219 503.992188 C 863.015625 503.6875 863.015625 503.382812 862.960938 503.078125 C 860.164062 487.316406 859.609375 471.113281 855.398438 455.714844 C 864.929688 453.550781 874.375 450.78125 884.097656 449.785156 " fill-opacity="1" fill-rule="nonzero"/><path fill="#1e1e1e" d="M 886.644531 690.929688 C 880.6875 695.996094 877.03125 703.835938 875.675781 713.863281 C 870.9375 747.988281 862.324219 780.808594 853.683594 814.269531 C 843.65625 852.964844 838.089844 893.957031 825.542969 931.933594 C 825.042969 932.433594 824.542969 932.984375 824.128906 933.652344 C 817.925781 943.371094 812.136719 953.425781 803.769531 961.488281 C 793.132812 971.875 782.941406 961.101562 775.710938 952.015625 C 788.257812 936.558594 795.433594 911.65625 799.089844 897.558594 C 811.027344 848.644531 824.683594 799.976562 838.835938 751.699219 C 845.621094 728.460938 852.6875 702.480469 847.3125 678.851562 C 847.5625 678.742188 847.8125 678.601562 847.976562 678.492188 C 848.28125 678.546875 848.613281 678.601562 848.917969 678.660156 C 862.214844 680.347656 874.761719 684.917969 886.644531 690.929688 " fill-opacity="1" fill-rule="nonzero"/><path fill="#1e1e1e" d="M 865.925781 434.328125 C 859.75 435.6875 853.601562 437.292969 847.367188 438.457031 C 791.363281 280.355469 643.644531 175.515625 473.105469 196.539062 C 406.074219 204.765625 332.5625 231.714844 278.96875 273.511719 C 225.230469 315.421875 193.460938 372.921875 175.097656 437.347656 C 168.976562 435.992188 162.855469 434.441406 156.734375 433.140625 C 171.746094 360.816406 204.511719 295.949219 264.617188 250.9375 C 325.085938 205.59375 404.246094 186.871094 478.175781 179.699219 C 555.34375 172.164062 636.414062 183.546875 705.664062 219.140625 C 742.75 238.253906 773.910156 266.585938 796.542969 301.570312 C 823.4375 343.0625 849.972656 387.269531 865.925781 434.328125 " fill-opacity="1" fill-rule="nonzero"/><path fill="#1e1e1e" d="M 847.726562 517.785156 C 856.589844 563.988281 861.578125 616.28125 838.890625 658.882812 C 838.394531 658.132812 838.035156 657.414062 837.535156 656.664062 C 834.820312 652.761719 831.414062 649.851562 827.703125 647.746094 C 842.605469 605.894531 844.402344 562.546875 841.605469 518.421875 C 843.65625 518.035156 845.707031 517.839844 847.726562 517.785156 " fill-opacity="1" fill-rule="nonzero"/><path fill="#1e1e1e" d="M 825.542969 671.871094 C 834.929688 685.222656 830.417969 706.441406 827.644531 720.84375 C 816.511719 778.761719 795.183594 835.238281 781.195312 892.601562 C 777.429688 906.949219 766.128906 950.242188 745.050781 947.25 C 782.332031 857.285156 812.191406 766.046875 823.132812 668.910156 C 823.992188 669.765625 824.792969 670.765625 825.542969 671.871094 " fill-opacity="1" fill-rule="nonzero"/><path fill="#1e1e1e" d="M 780.640625 682.953125 C 786.515625 673.230469 801.109375 658.632812 814.546875 663.035156 C 804.269531 761.144531 774.050781 853.101562 736.574219 943.734375 C 706.328125 926.117188 723.140625 879.445312 731.808594 854.710938 C 744.964844 817.179688 749.730469 778.402344 758.898438 739.816406 C 763.578125 719.902344 770.089844 700.484375 780.640625 682.953125 " fill-opacity="1" fill-rule="nonzero"/><path fill="#1e1e1e" d="M 809.226562 624.066406 C 809.476562 636.003906 790.917969 636.003906 790.667969 624.066406 C 790.113281 596.949219 789.0625 569.859375 784.796875 543.074219 C 782.941406 531.328125 800.804688 526.316406 802.664062 538.144531 C 807.234375 566.5625 808.589844 595.257812 809.226562 624.066406 " fill-opacity="1" fill-rule="nonzero"/><path fill="#1e1e1e" d="M 780.53125 568.003906 C 784.050781 584.816406 783.496094 601.824219 783.441406 618.886719 C 783.382812 630.878906 764.828125 630.878906 764.882812 618.886719 C 764.9375 603.539062 765.824219 588.027344 762.664062 572.933594 C 760.171875 561.246094 778.066406 556.3125 780.53125 568.003906 " fill-opacity="1" fill-rule="nonzero"/><path fill="#1e1e1e" d="M 751.667969 554.070312 C 757.042969 583.761719 757.152344 613.566406 757.152344 643.621094 C 757.152344 655.613281 738.597656 655.613281 738.597656 643.621094 C 738.597656 615.285156 738.84375 587.03125 733.777344 559.027344 C 731.699219 547.339844 749.5625 542.328125 751.667969 554.070312 " fill-opacity="1" fill-rule="nonzero"/><path fill="#1e1e1e" d="M 715.414062 517.921875 C 716.355469 506.042969 734.882812 505.984375 733.96875 517.921875 C 729.953125 569.914062 733.167969 621.988281 733.472656 674.03125 C 733.554688 686.027344 714.996094 685.96875 714.941406 674.03125 C 714.609375 621.988281 711.394531 569.914062 715.414062 517.921875 " fill-opacity="1" fill-rule="nonzero"/><path fill="#1e1e1e" d="M 707.683594 510.195312 C 707.765625 568.058594 708.183594 625.921875 708.183594 683.808594 C 708.183594 695.804688 689.652344 695.804688 689.652344 683.808594 C 689.652344 625.921875 689.210938 568.058594 689.152344 510.195312 C 689.152344 498.257812 707.683594 498.257812 707.683594 510.195312 " fill-opacity="1" fill-rule="nonzero"/><path fill="#1e1e1e" d="M 684.195312 555.121094 C 687.601562 576.839844 686.660156 598.527344 686.550781 620.4375 C 686.496094 632.429688 667.9375 632.429688 667.992188 620.4375 C 668.128906 600.328125 669.433594 580.050781 666.273438 560.082031 C 664.472656 548.335938 682.339844 543.324219 684.195312 555.121094 " fill-opacity="1" fill-rule="nonzero"/><path fill="#1e1e1e" d="M 655.335938 552.046875 C 660.707031 581.601562 657.992188 611.210938 657.742188 641.070312 C 657.605469 653.007812 639.074219 653.007812 639.1875 641.070312 C 639.378906 613.066406 642.539062 584.761719 637.441406 557.007812 C 635.28125 545.234375 653.171875 540.304688 655.335938 552.046875 " fill-opacity="1" fill-rule="nonzero"/><path fill="#1e1e1e" d="M 627.496094 509.253906 C 635.113281 562.492188 631.265625 615.867188 630.902344 669.40625 C 630.847656 681.316406 612.289062 681.398438 612.347656 669.40625 C 612.734375 617.636719 617 565.703125 609.632812 514.210938 C 607.96875 502.523438 625.835938 497.453125 627.496094 509.253906 " fill-opacity="1" fill-rule="nonzero"/><path fill="#1e1e1e" d="M 606.722656 662.730469 C 607.472656 674.640625 588.914062 674.585938 588.164062 662.730469 C 585.144531 616.917969 584.148438 571.023438 584.535156 525.152344 C 584.648438 513.160156 603.207031 513.160156 603.066406 525.152344 C 602.707031 571.023438 603.703125 616.917969 606.722656 662.730469 " fill-opacity="1" fill-rule="nonzero"/><path fill="#1e1e1e" d="M 576.808594 711.121094 C 577.777344 723.058594 559.246094 722.949219 558.25 711.121094 C 552.269531 638.246094 558.195312 565.09375 554.179688 492.136719 C 553.488281 480.199219 572.042969 480.253906 572.710938 492.136719 C 576.726562 565.09375 570.796875 638.246094 576.808594 711.121094 " fill-opacity="1" fill-rule="nonzero"/><path fill="#1e1e1e" d="M 546.453125 650.847656 C 547.863281 662.730469 529.304688 662.539062 527.894531 650.847656 C 522.324219 605.839844 526.34375 560.523438 524.238281 515.320312 C 523.683594 503.382812 542.242188 503.4375 542.796875 515.320312 C 544.898438 560.523438 540.882812 605.839844 546.453125 650.847656 " fill-opacity="1" fill-rule="nonzero"/><path fill="#1e1e1e" d="M 509.335938 553.460938 C 513.488281 584.621094 511.082031 615.921875 510.886719 647.25 C 510.777344 659.1875 492.21875 659.1875 492.355469 647.25 C 492.523438 615.921875 494.933594 584.621094 490.804688 553.460938 C 489.199219 541.660156 507.730469 541.773438 509.335938 553.460938 " fill-opacity="1" fill-rule="nonzero"/><path fill="#1e1e1e" d="M 484.601562 667.355469 C 485.957031 679.238281 467.425781 679.046875 466.070312 667.355469 C 461.417969 627.71875 464.769531 588.027344 465.019531 548.335938 C 465.074219 536.34375 483.632812 536.34375 483.574219 548.335938 C 483.296875 588.027344 479.976562 627.71875 484.601562 667.355469 " fill-opacity="1" fill-rule="nonzero"/><path fill="#1e1e1e" d="M 459.3125 695.167969 C 459.449219 707.105469 440.890625 707.105469 440.78125 695.167969 C 440.394531 638.660156 441.28125 582.15625 441.335938 525.652344 C 441.335938 513.714844 459.867188 513.714844 459.867188 525.652344 C 459.808594 582.15625 458.953125 638.660156 459.3125 695.167969 " fill-opacity="1" fill-rule="nonzero"/><path fill="#1e1e1e" d="M 429.453125 738.957031 C 429.953125 750.953125 411.394531 750.894531 410.921875 738.957031 C 407.515625 655.167969 408.320312 571.328125 408.871094 487.484375 C 408.929688 475.574219 427.484375 475.574219 427.429688 487.484375 C 426.875 571.328125 426.046875 655.167969 429.453125 738.957031 " fill-opacity="1" fill-rule="nonzero"/><path fill="#1e1e1e" d="M 382.585938 500.917969 C 383.390625 489.035156 402.003906 488.980469 401.144531 500.917969 C 396.742188 561.328125 397.542969 621.792969 399.039062 682.257812 C 399.34375 694.253906 380.785156 694.195312 380.480469 682.257812 C 379.015625 621.792969 378.210938 561.328125 382.585938 500.917969 " fill-opacity="1" fill-rule="nonzero"/><path fill="#1e1e1e" d="M 373.308594 557.0625 C 374.25 580.4375 373.863281 603.789062 373.804688 627.167969 C 373.804688 639.105469 355.25 639.105469 355.25 627.167969 C 355.332031 603.789062 355.691406 580.4375 354.777344 557.0625 C 354.277344 545.125 372.808594 545.179688 373.308594 557.0625 " fill-opacity="1" fill-rule="nonzero"/><path fill="#1e1e1e" d="M 345.996094 522.550781 C 345.996094 572.210938 345.996094 621.488281 345.996094 670.957031 C 345.996094 683.3125 327.4375 683.3125 327.4375 670.957031 C 327.4375 621.488281 327.4375 572.210938 327.4375 522.550781 C 327.4375 510.613281 345.996094 510.613281 345.996094 522.550781 " fill-opacity="1" fill-rule="nonzero"/><path fill="#1e1e1e" d="M 318.355469 557.171875 C 322.175781 581.492188 320.875 605.726562 320.765625 630.269531 C 320.707031 642.207031 302.152344 642.207031 302.207031 630.269531 C 302.34375 607.5 304.0625 584.621094 300.488281 562.128906 C 298.632812 550.441406 316.5 545.371094 318.355469 557.171875 " fill-opacity="1" fill-rule="nonzero"/><path fill="#1e1e1e" d="M 293.175781 846.429688 C 302.289062 872.769531 316.5 902.792969 302.398438 929.828125 C 298.742188 936.808594 295.171875 941.460938 291.570312 944.175781 C 254.371094 854.40625 224.375 763.304688 213.738281 666.195312 C 222.765625 664.089844 233.652344 667.246094 241.378906 675.140625 C 257.5 691.539062 263.566406 718.292969 269.078125 739.816406 C 278.109375 775.242188 281.238281 811.722656 293.175781 846.429688 " fill-opacity="1" fill-rule="nonzero"/><path fill="#1e1e1e" d="M 296.527344 528.726562 C 296.527344 572.019531 296.527344 615.285156 296.527344 658.578125 C 296.527344 670.957031 277.96875 670.957031 277.96875 658.578125 C 277.96875 615.285156 277.96875 528.726562 277.96875 528.726562 C 277.96875 516.371094 296.527344 516.371094 296.527344 528.726562 " fill-opacity="1" fill-rule="nonzero"/><path fill="#1e1e1e" d="M 282.984375 947.5 C 265.5625 947.582031 251.019531 908.914062 246.753906 892.601562 C 233.402344 837.898438 216.699219 784.023438 202.296875 729.625 C 198.835938 716.328125 197.035156 702.976562 197.285156 689.183594 C 197.476562 680.597656 200.441406 674.476562 204.957031 670.570312 C 216.089844 767.15625 245.894531 857.976562 282.984375 947.5 " fill-opacity="1" fill-rule="nonzero"/><path fill="#1e1e1e" d="M 266.863281 549.941406 C 271.046875 579.441406 269.382812 608.800781 269.1875 638.496094 C 269.132812 650.40625 250.574219 650.488281 250.660156 638.496094 C 250.824219 610.601562 252.929688 582.601562 248.914062 554.902344 C 247.253906 543.210938 265.117188 538.199219 266.863281 549.941406 " fill-opacity="1" fill-rule="nonzero"/><path fill="#1e1e1e" d="M 245.589844 941.019531 C 245.589844 941.074219 245.507812 941.210938 245.507812 941.269531 C 244.039062 942.320312 242.847656 943.925781 242.238281 946.199219 C 241.433594 949.191406 240.273438 951.65625 238.722656 953.816406 C 234.816406 957.71875 229.441406 960.878906 223.929688 962.539062 C 219.109375 963.453125 213.847656 963.289062 208.722656 962.152344 C 205.757812 960.628906 203.542969 957.886719 202.65625 953.703125 C 202.546875 953.207031 202.40625 952.761719 202.242188 952.347656 C 202.851562 951.046875 203.460938 949.742188 204.097656 948.441406 C 204.402344 947.75 204.597656 947.027344 204.761719 946.28125 C 205.703125 944.480469 205.871094 942.320312 205.011719 939.773438 C 191.800781 903.292969 186.703125 863.492188 177.257812 825.820312 C 167.785156 788.484375 157.59375 751.867188 152.273438 713.863281 C 151.164062 706.136719 147.953125 696.71875 142.082031 690.539062 C 153.769531 684.722656 166.011719 680.292969 179.058594 678.660156 C 179.167969 678.660156 179.308594 678.601562 179.363281 678.601562 C 175.261719 699.820312 182.132812 725.71875 186.703125 743.222656 C 200.332031 794.796875 216.203125 845.734375 228.832031 897.558594 C 232.460938 911.410156 237.417969 927.613281 245.589844 941.019531 " fill-opacity="1" fill-rule="nonzero"/><path fill="#1e1e1e" d="M 245.507812 578.195312 C 245.507812 584.371094 245.453125 597.113281 245.035156 606.945312 C 244.398438 618.828125 225.839844 618.277344 226.476562 606.28125 C 226.894531 596.503906 226.976562 578.195312 226.976562 578.195312 C 226.976562 565.84375 245.507812 565.84375 245.507812 578.195312 " fill-opacity="1" fill-rule="nonzero"/><path fill="#1e1e1e" d="M 200.441406 648.246094 C 197.589844 649.992188 194.761719 652.152344 191.855469 654.808594 C 190.664062 655.863281 189.695312 657.027344 188.640625 658.214844 C 166.371094 615.726562 171.441406 563.738281 180.222656 517.785156 C 182.269531 517.839844 184.292969 518.035156 186.34375 518.421875 C 183.488281 562.738281 185.289062 606.199219 200.441406 648.246094 " fill-opacity="1" fill-rule="nonzero"/><path fill="#1e1e1e" d="M 186.398438 942.570312 C 185.734375 944.039062 185.042969 945.589844 184.292969 947.027344 C 178.613281 947.75 173.351562 946.695312 168.421875 944.285156 C 159.390625 892.601562 142.496094 841.527344 132.109375 789.894531 C 128.839844 773.277344 125.128906 734.554688 107.875 721.644531 C 114.382812 707.242188 133.105469 702.921875 134.464844 722.949219 C 134.851562 727.960938 134.960938 733.390625 136.070312 738.347656 C 141.527344 761.53125 147.398438 784.578125 153.382812 807.648438 C 164.90625 852.050781 171.136719 899.386719 186.398438 942.570312 " fill-opacity="1" fill-rule="nonzero"/><path fill="#1e1e1e" d="M 172.550781 455.714844 C 168.367188 471.113281 167.785156 487.316406 164.960938 503.078125 C 164.90625 503.382812 164.90625 503.6875 164.90625 503.992188 C 164.515625 504.683594 164.210938 505.347656 163.960938 506.097656 C 163.65625 506.789062 163.351562 507.59375 163.160156 508.507812 C 153.328125 558.363281 147.398438 614.621094 169.722656 661.679688 C 154.738281 664.644531 140.640625 670.15625 127.234375 677.441406 C 107.125 602.679688 123.523438 523.046875 143.796875 449.785156 C 153.519531 450.78125 162.964844 453.550781 172.550781 455.714844 " fill-opacity="1" fill-rule="nonzero"/><path fill="#1e1e1e" d="M 150.472656 914.484375 C 151.054688 916.726562 155.375 927.472656 156.984375 935.339844 C 121.667969 897.476562 109.867188 779.203125 107.570312 734.5 C 120.808594 753 124.464844 799.007812 127.539062 813.773438 C 132.191406 835.652344 138.175781 857.285156 142.746094 879.25 C 145.238281 891.050781 147.757812 902.792969 150.472656 914.484375 " fill-opacity="1" fill-rule="nonzero"/><g fill="#6d9994" fill-opacity="1"><g transform="translate(34.349885, 1271.122918)"><g><path d="M 8.484375 0 L 8.484375 -89.40625 L 30.6875 -89.40625 L 53.734375 -35.0625 L 76.796875 -89.40625 L 98.875 -89.40625 L 98.875 0 L 77.765625 0 L 77.765625 -49.125 L 59.078125 -3.875 L 48.40625 -3.875 L 29.59375 -49.125 L 29.59375 0 Z M 8.484375 0 "/></g></g></g><g fill="#6d9994" fill-opacity="1"><g transform="translate(147.891907, 1271.122918)"><g><path d="M 21.109375 0 L 7.890625 -13.46875 L 7.890625 -89.40625 L 30.578125 -89.40625 L 30.578125 -21.46875 L 34.8125 -17.21875 L 59.4375 -17.21875 L 63.6875 -21.46875 L 63.6875 -89.40625 L 86.375 -89.40625 L 86.375 -13.46875 L 72.90625 0 Z M 21.109375 0 "/></g></g></g><g fill="#6d9994" fill-opacity="1"><g transform="translate(248.333014, 1271.122918)"><g><path d="M 8.984375 0 L 8.984375 -18.203125 L 55.5625 -18.203125 L 59.8125 -22.4375 L 59.8125 -32.390625 L 55.5625 -36.640625 L 18.921875 -36.640625 L 5.453125 -50.21875 L 5.453125 -75.9375 L 18.921875 -89.40625 L 77.390625 -89.40625 L 77.390625 -71.203125 L 32.03125 -71.203125 L 27.78125 -66.96875 L 27.78125 -59.078125 L 32.03125 -54.828125 L 68.65625 -54.828125 L 82.125 -41.375 L 82.125 -13.46875 L 68.65625 0 Z M 8.984375 0 "/></g></g></g><g fill="#6d9994" fill-opacity="1"><g transform="translate(342.102334, 1271.122918)"><g><path d="M 4.859375 0 L 4.859375 -17.109375 L 14.796875 -17.109375 L 14.5625 -72.296875 L 4.859375 -72.296875 L 4.859375 -89.40625 L 46.09375 -89.40625 L 46.09375 -72.296875 L 36.265625 -72.296875 L 36.03125 -17.109375 L 46.09375 -17.109375 L 46.09375 0 Z M 4.859375 0 "/></g></g></g><g fill="#6d9994" fill-opacity="1"><g transform="translate(399.237606, 1271.122918)"><g><path d="M 19.53125 0 L 6.0625 -13.46875 L 6.0625 -75.9375 L 19.53125 -89.40625 L 65.515625 -89.40625 L 79.09375 -75.9375 L 79.09375 -57.859375 L 57.015625 -57.859375 L 57.015625 -67.9375 L 52.65625 -72.1875 L 33.125 -72.1875 L 28.75 -67.9375 L 28.75 -21.46875 L 33.125 -17.21875 L 53.375 -17.21875 L 57.859375 -21.46875 L 57.859375 -31.65625 L 79.828125 -31.65625 L 79.828125 -13.46875 L 66.359375 0 Z M 19.53125 0 "/></g></g></g><g fill="#6d9994" fill-opacity="1"><g transform="translate(486.699094, 1271.122918)"><g/></g></g><g fill="#6d9994" fill-opacity="1"><g transform="translate(522.727318, 1271.122918)"><g><path d="M 8.484375 0 L 8.484375 -89.40625 L 31.171875 -89.40625 L 31.171875 -56.171875 L 61.625 -56.171875 L 61.625 -89.40625 L 84.3125 -89.40625 L 84.3125 0 L 61.625 0 L 61.625 -38.453125 L 31.171875 -38.453125 L 31.171875 0 Z M 8.484375 0 "/></g></g></g><g fill="#6d9994" fill-opacity="1"><g transform="translate(621.712757, 1271.122918)"><g><path d="M 8.484375 0 L 8.484375 -89.40625 L 76.421875 -89.40625 L 76.421875 -70.96875 L 31.171875 -70.96875 L 31.171875 -54.46875 L 71.9375 -54.46875 L 71.9375 -37.359375 L 31.171875 -37.359375 L 31.171875 -18.4375 L 76.421875 -18.4375 L 76.421875 0 Z M 8.484375 0 "/></g></g></g><g fill="#6d9994" fill-opacity="1"><g transform="translate(710.38728, 1271.122918)"><g><path d="M 0 0 L 26.203125 -89.40625 L 63.078125 -89.40625 L 89.28125 0 L 65.265625 0 L 60.78125 -17.828125 L 28.515625 -17.828125 L 24.015625 0 Z M 33 -35.296875 L 56.28125 -35.296875 L 46.828125 -72.296875 L 42.453125 -72.296875 Z M 33 -35.296875 "/></g></g></g><g fill="#6d9994" fill-opacity="1"><g transform="translate(805.854865, 1271.122918)"><g><path d="M 8.484375 0 L 8.484375 -89.40625 L 31.171875 -89.40625 L 31.171875 -18.4375 L 72.1875 -18.4375 L 72.1875 0 Z M 8.484375 0 "/></g></g></g><g fill="#6d9994" fill-opacity="1"><g transform="translate(886.03804, 1271.122918)"><g><path d="M 8.984375 0 L 8.984375 -18.203125 L 55.5625 -18.203125 L 59.8125 -22.4375 L 59.8125 -32.390625 L 55.5625 -36.640625 L 18.921875 -36.640625 L 5.453125 -50.21875 L 5.453125 -75.9375 L 18.921875 -89.40625 L 77.390625 -89.40625 L 77.390625 -71.203125 L 32.03125 -71.203125 L 27.78125 -66.96875 L 27.78125 -59.078125 L 32.03125 -54.828125 L 68.65625 -54.828125 L 82.125 -41.375 L 82.125 -13.46875 L 68.65625 0 Z M 8.984375 0 "/></g></g></g></svg>